<svg xmlns="http://www.w3.org/2000/svg" version="1.1" xmlns:xlink="http://www.w3.org/1999/xlink" xmlns:svgjs="http://svgjs.dev/svgjs" viewBox="0 0 800 400"><path d="M129.64600563844147 283.1776922966438C128.5159610827774 275.2673788048225 115.11685921510161 209.15975970997366 118.88367653687897 207.84137332691702C122.65049385865632 206.5229869438604 161.28278763612212 274.8593001915412 165.52045632203522 270.62163150562816C169.7581250079483 266.383962819715 155.0047572406143 166.16423755421195 159.2424259265274 167.48262393726858C163.4800946124405 168.80101032032522 200.22898293336334 285.43778140797184 205.87920571168365 283.1776922966438C211.52942849000397 280.9176031853156 208.34555138429107 147.65303256763968 213.0540714343399 145.95796573414358C217.76259148438874 144.26289890064749 245.6370501025528 269.57679969563054 250.72225380738678 267.03419864430003C255.80745751222076 264.4915975929694 256.399382408461 118.91760623707327 261.4845829089493 121.74271762623343C266.56978340943755 124.56782901539358 291.5249340136856 298.55437133564527 299.152734764418 293.9400213982063C306.78053551515046 289.3256714607673 329.8926372607559 73.84137180103812 334.13030434449615 77.79652774586233C338.3679714282364 81.75168369068655 331.78949562867587 334.6216264702278 339.5114688952774 331.60817325367503C347.23344216187894 328.5947200371223 402.3051920398087 52.769618108411166 407.67290688355865 49.09697330250296C413.04062172730863 45.424328496594754 385.8298732837051 289.8503347374397 390.6325626452774 296.6306036735969C395.4352520068497 303.4108726097541 447.10338799317776 116.40190524830373 453.4128055651993 113.67096317066702C459.72222313722085 110.94002109303031 444.88368599732814 266.9489850975471 450.7222538073868 270.62163150562816C456.5608216174454 274.2942779137092 504.7805429919567 147.23599231495413 509.0182132800425 148.6485480095342C513.2558835681284 150.0611037041143 486.3725016101207 282.1911358238654 491.0810184558238 284.0745428825813C495.7895353015268 285.95794994129704 549.4352219470345 167.15078037037406 553.8612308581673 166.58575809254202C558.2872397693002 166.02073581470998 529.749174888929 275.2090721489387 533.2334842761361 278.69337833180003C536.7177936633432 282.1776845146613 580.7357154162728 199.01626239552053 587.0451297839486 199.76962650074515C593.3545441516244 200.52299060596977 588.3321137317025 283.60818546070624 593.3231449206673 285.8682745720344C598.3141761096322 288.12836368336247 630.9061121447885 220.54092059864553 634.5787601550423 221.29428470387015C638.2514081652962 222.04764880909477 625.1931256945932 290.9714219261603 628.3007450183236 293.0431708122688C631.408364342054 295.11491969837715 660.4083237536752 246.48711063160454 664.1751346667611 241.02522647633108 " fill="none" stroke-width="20" stroke="url(&quot;#SvgjsLinearGradient1009&quot;)" stroke-linecap="round" transform="matrix(-1.3204147787315124,0.27078990518745716,-0.3897269543495886,0.8372627622960865,990.7244824377016,-65.3012109844409)" stroke-dasharray="0 0"></path><defs><linearGradient id="SvgjsLinearGradient1009"><stop stop-color="#ffa600" offset="0"></stop><stop stop-color="#fff200" offset="1"></stop></linearGradient></defs></svg>