<svg id="visual" viewBox="0 0 1920 800" width="1920" height="800" xmlns="http://www.w3.org/2000/svg" xmlns:xlink="http://www.w3.org/1999/xlink" version="1.1"><path d="M0 253L240 210L480 257L720 250L960 195L1200 192L1440 202L1680 298L1920 101L1920 801L1680 801L1440 801L1200 801L960 801L720 801L480 801L240 801L0 801Z" fill="#35231b"></path><path d="M0 371L240 365L480 420L720 333L960 373L1200 352L1440 331L1680 261L1920 285L1920 801L1680 801L1440 801L1200 801L960 801L720 801L480 801L240 801L0 801Z" fill="#744925"></path><path d="M0 463L240 460L480 453L720 529L960 343L1200 479L1440 394L1680 442L1920 487L1920 801L1680 801L1440 801L1200 801L960 801L720 801L480 801L240 801L0 801Z" fill="#ae7826"></path><path d="M0 529L240 597L480 563L720 519L960 478L1200 579L1440 585L1680 538L1920 509L1920 801L1680 801L1440 801L1200 801L960 801L720 801L480 801L240 801L0 801Z" fill="#deb11b"></path><path d="M0 653L240 651L480 738L720 621L960 605L1200 600L1440 699L1680 650L1920 731L1920 801L1680 801L1440 801L1200 801L960 801L720 801L480 801L240 801L0 801Z" fill="#fff200"></path></svg>