<?xml version="1.0" standalone="no"?>
<svg xmlns:xlink="http://www.w3.org/1999/xlink" id="wave" style="transform:rotate(0deg); transition: 0.3s" viewBox="0 0 1440 490" version="1.1" xmlns="http://www.w3.org/2000/svg"><defs><linearGradient id="sw-gradient-0" x1="0" x2="0" y1="1" y2="0"><stop stop-color="rgba(255, 242, 0, 1)" offset="0%"/><stop stop-color="rgba(243, 114.499, 62, 1)" offset="100%"/></linearGradient></defs><path style="transform:translate(0, 0px); opacity:1" fill="url(#sw-gradient-0)" d="M0,392L34.3,375.7C68.6,359,137,327,206,318.5C274.3,310,343,327,411,285.8C480,245,549,147,617,147C685.7,147,754,245,823,236.8C891.4,229,960,114,1029,130.7C1097.1,147,1166,294,1234,302.2C1302.9,310,1371,180,1440,114.3C1508.6,49,1577,49,1646,114.3C1714.3,180,1783,310,1851,351.2C1920,392,1989,343,2057,269.5C2125.7,196,2194,98,2263,81.7C2331.4,65,2400,131,2469,179.7C2537.1,229,2606,261,2674,277.7C2742.9,294,2811,294,2880,277.7C2948.6,261,3017,229,3086,253.2C3154.3,278,3223,359,3291,392C3360,425,3429,408,3497,400.2C3565.7,392,3634,392,3703,351.2C3771.4,310,3840,229,3909,163.3C3977.1,98,4046,49,4114,89.8C4182.9,131,4251,261,4320,261.3C4388.6,261,4457,131,4526,73.5C4594.3,16,4663,33,4731,49C4800,65,4869,82,4903,89.8L4937.1,98L4937.1,490L4902.9,490C4868.6,490,4800,490,4731,490C4662.9,490,4594,490,4526,490C4457.1,490,4389,490,4320,490C4251.4,490,4183,490,4114,490C4045.7,490,3977,490,3909,490C3840,490,3771,490,3703,490C3634.3,490,3566,490,3497,490C3428.6,490,3360,490,3291,490C3222.9,490,3154,490,3086,490C3017.1,490,2949,490,2880,490C2811.4,490,2743,490,2674,490C2605.7,490,2537,490,2469,490C2400,490,2331,490,2263,490C2194.3,490,2126,490,2057,490C1988.6,490,1920,490,1851,490C1782.9,490,1714,490,1646,490C1577.1,490,1509,490,1440,490C1371.4,490,1303,490,1234,490C1165.7,490,1097,490,1029,490C960,490,891,490,823,490C754.3,490,686,490,617,490C548.6,490,480,490,411,490C342.9,490,274,490,206,490C137.1,490,69,490,34,490L0,490Z"/><defs><linearGradient id="sw-gradient-1" x1="0" x2="0" y1="1" y2="0"><stop stop-color="rgba(255, 242, 0, 1)" offset="0%"/><stop stop-color="rgba(243, 181.943, 62, 1)" offset="100%"/></linearGradient></defs><path style="transform:translate(0, 50px); opacity:0.9" fill="url(#sw-gradient-1)" d="M0,49L34.3,106.2C68.6,163,137,278,206,294C274.3,310,343,229,411,212.3C480,196,549,245,617,220.5C685.7,196,754,98,823,122.5C891.4,147,960,294,1029,310.3C1097.1,327,1166,212,1234,187.8C1302.9,163,1371,229,1440,220.5C1508.6,212,1577,131,1646,114.3C1714.3,98,1783,147,1851,179.7C1920,212,1989,229,2057,196C2125.7,163,2194,82,2263,65.3C2331.4,49,2400,98,2469,138.8C2537.1,180,2606,212,2674,228.7C2742.9,245,2811,245,2880,245C2948.6,245,3017,245,3086,204.2C3154.3,163,3223,82,3291,73.5C3360,65,3429,131,3497,179.7C3565.7,229,3634,261,3703,277.7C3771.4,294,3840,294,3909,253.2C3977.1,212,4046,131,4114,130.7C4182.9,131,4251,212,4320,261.3C4388.6,310,4457,327,4526,326.7C4594.3,327,4663,310,4731,253.2C4800,196,4869,98,4903,49L4937.1,0L4937.1,490L4902.9,490C4868.6,490,4800,490,4731,490C4662.9,490,4594,490,4526,490C4457.1,490,4389,490,4320,490C4251.4,490,4183,490,4114,490C4045.7,490,3977,490,3909,490C3840,490,3771,490,3703,490C3634.3,490,3566,490,3497,490C3428.6,490,3360,490,3291,490C3222.9,490,3154,490,3086,490C3017.1,490,2949,490,2880,490C2811.4,490,2743,490,2674,490C2605.7,490,2537,490,2469,490C2400,490,2331,490,2263,490C2194.3,490,2126,490,2057,490C1988.6,490,1920,490,1851,490C1782.9,490,1714,490,1646,490C1577.1,490,1509,490,1440,490C1371.4,490,1303,490,1234,490C1165.7,490,1097,490,1029,490C960,490,891,490,823,490C754.3,490,686,490,617,490C548.6,490,480,490,411,490C342.9,490,274,490,206,490C137.1,490,69,490,34,490L0,490Z"/><defs><linearGradient id="sw-gradient-2" x1="0" x2="0" y1="1" y2="0"><stop stop-color="rgba(255, 242, 0, 1)" offset="0%"/><stop stop-color="rgba(255, 242, 0, 1)" offset="100%"/></linearGradient></defs><path style="transform:translate(0, 100px); opacity:0.8" fill="url(#sw-gradient-2)" d="M0,245L34.3,253.2C68.6,261,137,278,206,302.2C274.3,327,343,359,411,367.5C480,376,549,359,617,310.3C685.7,261,754,180,823,147C891.4,114,960,131,1029,179.7C1097.1,229,1166,310,1234,294C1302.9,278,1371,163,1440,138.8C1508.6,114,1577,180,1646,204.2C1714.3,229,1783,212,1851,171.5C1920,131,1989,65,2057,98C2125.7,131,2194,261,2263,302.2C2331.4,343,2400,294,2469,269.5C2537.1,245,2606,245,2674,220.5C2742.9,196,2811,147,2880,122.5C2948.6,98,3017,98,3086,114.3C3154.3,131,3223,163,3291,147C3360,131,3429,65,3497,106.2C3565.7,147,3634,294,3703,351.2C3771.4,408,3840,376,3909,367.5C3977.1,359,4046,376,4114,359.3C4182.9,343,4251,294,4320,245C4388.6,196,4457,147,4526,130.7C4594.3,114,4663,131,4731,147C4800,163,4869,180,4903,187.8L4937.1,196L4937.1,490L4902.9,490C4868.6,490,4800,490,4731,490C4662.9,490,4594,490,4526,490C4457.1,490,4389,490,4320,490C4251.4,490,4183,490,4114,490C4045.7,490,3977,490,3909,490C3840,490,3771,490,3703,490C3634.3,490,3566,490,3497,490C3428.6,490,3360,490,3291,490C3222.9,490,3154,490,3086,490C3017.1,490,2949,490,2880,490C2811.4,490,2743,490,2674,490C2605.7,490,2537,490,2469,490C2400,490,2331,490,2263,490C2194.3,490,2126,490,2057,490C1988.6,490,1920,490,1851,490C1782.9,490,1714,490,1646,490C1577.1,490,1509,490,1440,490C1371.4,490,1303,490,1234,490C1165.7,490,1097,490,1029,490C960,490,891,490,823,490C754.3,490,686,490,617,490C548.6,490,480,490,411,490C342.9,490,274,490,206,490C137.1,490,69,490,34,490L0,490Z"/></svg>